<svg width="954" height="840" viewBox="0 0 954 840" fill="none" xmlns="http://www.w3.org/2000/svg">
<g clip-path="url(#clip0_131_34)">
<path d="M181.102 306L575.602 147L769.102 303.5C769.268 391.667 791 562 764.102 565C757.875 565.694 762.102 553.5 753.102 557.5C744.102 561.5 728.102 524 724.102 527C720.102 530 718.602 560 717.102 570C715.602 580 738.102 608 740.602 617.5C743.102 627 723.602 624 728.102 641C732.602 658 703.602 692.5 709.602 655C715.602 617.5 704.602 605.5 703.602 600C702.602 594.5 685.102 579.5 685.102 590C685.102 600.5 696.602 624.5 685.102 646.5C671.135 673.219 693.102 693.5 696.602 724.5C700.102 755.5 670.602 803.5 664.102 803C657.602 802.5 657.602 801.5 658.602 778.5C659.602 755.5 638.602 725 629.602 713C620.602 701 634.602 688.5 617.102 687.5C599.602 686.5 602.602 720 596.602 748C590.602 776 609.602 794.5 598.602 863.5C587.602 932.5 543.602 935.5 533.602 936.5C523.602 937.5 504.102 905 519.102 881C534.102 857 531.102 817 536.102 799.5C541.102 782 535.602 774 531.102 772.5C526.602 771 516.602 776.5 516.602 787C516.602 797.5 504.102 810 497.102 809C490.102 808 479.102 800 484.102 781.5C489.102 763 472.602 744.5 466.602 744.5C460.602 744.5 453.102 748 456.602 768.5C460.102 789 452.602 824 447.602 824.5C442.602 825 437.102 819 439.602 805.5C442.102 792 431.102 768.5 428.602 759C426.102 749.5 418.602 744.5 410.602 759C402.602 773.5 403.102 803.5 398.602 794.5C394.102 785.5 397.602 776.5 392.102 776.5C386.602 776.5 384.602 743.5 383.102 725C381.602 706.5 373.102 706 368.602 713C364.102 720 366.102 731.5 368.602 748C371.102 764.5 364.602 778 356.102 781.5C347.602 785 337.102 777 333.102 768.5C329.102 760 346.602 740 333.102 739C319.602 738 310.102 705 313.602 691.5C317.102 678 306.102 645.5 298.602 631C291.102 616.5 283.102 516 283.102 587.5C283.102 659 266.102 668.5 256.102 667.5C246.102 666.5 226.602 642.5 241.102 624C252.702 609.2 245.935 572.833 241.102 556.5C171.902 550.9 172.268 387.167 181.102 306Z" fill="#FFC3A0" stroke="black"/>
</g>
<defs>
<clipPath id="clip0_131_34">
<rect width="953.5" height="839.5" fill="white"/>
</clipPath>
</defs>
</svg>
