<svg width="623" height="250" viewBox="0 0 623 250" fill="none" xmlns="http://www.w3.org/2000/svg">
<path d="M354.774 129.912L197.72 116.259C202.842 131.04 255.573 160.691 292.378 162.896C329.184 165.101 350.035 141.294 354.774 129.912ZM354.774 129.912L462.83 120.088L465.243 144.571L345.35 143.48L354.774 129.912Z" stroke="white" stroke-width="11"/>
<path d="M191.885 57.8468L6.70028 194.861M191.885 57.8468L616.976 76.4994M191.885 57.8468L190.811 82.3233M6.70028 194.861L5.73587 216.839L430.827 235.492M6.70028 194.861L38.686 195.888M616.976 76.4994L615.902 100.976L430.827 235.492M616.976 76.4994L584.607 99.6027M430.827 235.492L429.723 208.445M429.723 208.445L432.01 208.518L584.607 99.6027M429.723 208.445L38.686 195.888M190.811 82.3233L584.607 99.6027M190.811 82.3233L38.686 195.888" stroke="white" stroke-width="11"/>
</svg>
