<svg width="954" height="840" viewBox="0 0 954 840" fill="none" xmlns="http://www.w3.org/2000/svg">
<path d="M399.5 626.5C398.7 630.9 374.167 649 362 657.5C366.167 664.5 375.8 680.2 381 687C387.5 695.5 382.5 741 396.5 733C410.5 725 402 687 402 684C402 681 410 680.5 409 689C408 697.5 411.5 712.5 416.5 712.5C421.5 712.5 422.5 706.5 422.5 704C422.5 701.5 424 698.5 427.5 697C431 695.5 429 686 434 687C439 688 434.5 696 433 706.5C431.5 717 421 735 437 736.5C453 738 449 706.5 452.5 704C456 701.5 459 709.5 462.5 714.5C466 719.5 456 741 466 741C476 741 472.5 713 479 712.5C485.5 712 484 719 490 724C496 729 488.5 751 493 751C497.5 751 499.5 742.5 499 736.5C498.5 730.5 498.5 720 503.5 720.5C508.5 721 503.5 742 510 739C516.5 736 512.5 733 514.5 724C516.1 716.8 512.167 704 510 698.5C511.5 698.333 515.4 699.7 519 706.5C523.5 715 520 737 528 733C534.4 729.8 537.333 700.333 538 686C542.333 694.833 549.1 716.6 541.5 733C532 753.5 538 769 545.5 767C553 765 540 762 548.5 753C557 744 562 711.5 562 704C562 696.5 551 674 558.5 675C566 676 561 718.5 576 706.5C588 696.9 584.667 673.5 581.5 663L592.5 657.5L581.5 646.5C581 643.833 578.7 637.2 573.5 632C567 625.5 551 626.5 545.5 626.5C541.1 626.5 515.667 620.167 503.5 617C496.333 622.833 480.5 634.5 474.5 634.5C468.5 634.5 452.667 622.833 445.5 617L421 626.5C414.167 624.667 400.3 622.1 399.5 626.5Z" fill="#AF0000" stroke="black"/>
</svg>
