<svg width="954" height="840" viewBox="0 0 954 840" fill="none" xmlns="http://www.w3.org/2000/svg">
<path d="M558.5 376L515 422.5L558.5 338L671.5 327L753.5 376L671.5 360L558.5 376Z" fill="black"/>
<path d="M398.5 376V338L282.5 327L201 376L282.5 360L398.5 376Z" fill="black"/>
<path d="M439 443L465 552C464.667 562.667 463.1 585.7 459.5 592.5C455 601 458.5 604.5 461 605C463.5 605.5 469 597.5 467 591C465 584.5 464 578.5 467 578C470 577.5 473 592.5 470 601.5C467.6 608.7 470.667 614.5 472.5 616.5C474.5 616.667 478.1 613.9 476.5 601.5C474.9 589.1 475.833 586.333 476.5 586.5C477.333 588 479.3 592.4 480.5 598C482 605 483.5 592.5 483 589.5C482.5 586.5 486 582 487.5 583C489 584 486.5 605 489.5 605C492.5 605 495.5 602.5 495.5 596C495.5 589.5 496 588 497 588C498 588 499.5 592.5 500.5 593.5C501.3 594.3 496.5 564.167 494 549L515 422.5M515 422.5L558.5 376L671.5 360L753.5 376L671.5 327L558.5 338L515 422.5ZM398.5 338V376L282.5 360L201 376L282.5 327L398.5 338Z" stroke="black"/>
</svg>
