<svg width="954" height="840" viewBox="0 0 954 840" fill="none" xmlns="http://www.w3.org/2000/svg">
<g clip-path="url(#clip0_131_34)">
<path d="M420.5 352.5V323L303.5 314.5L224 352.5L303.5 336L420.5 352.5Z" fill="black"/>
<path d="M581 347L537 399.5L581 323L694 309L777 347L694 331.5L581 347Z" fill="black"/>
<path d="M461.5 419L466.5 527L461.5 553.5L499 572L537 553.5L532.5 527L537 399.5M537 399.5L581 347L694 331.5L777 347L694 309L581 323L537 399.5ZM420.5 323V352.5L303.5 336L224 352.5L303.5 314.5L420.5 323Z" stroke="black"/>
</g>
<defs>
<clipPath id="clip0_131_34">
<rect width="953.5" height="839.5" fill="white"/>
</clipPath>
</defs>
</svg>
