<svg width="954" height="840" viewBox="0 0 954 840" fill="none" xmlns="http://www.w3.org/2000/svg">
<path d="M211 393.5L298.5 377.5L380.5 403M380.5 403L401 418M380.5 403L298.5 397.5L240.5 400.5L201 412" stroke="black"/>
<path d="M733.5 393.5L647.5 375L565.5 401M565.5 401L543.5 417.5M565.5 401L647.5 397L706 401L743 413" stroke="black"/>
<path d="M647 397L593 400C596.167 414.333 603.4 447 605 453C607 460.5 597.5 489 605 487.5C612.5 486 612 475.5 612.5 474C613 472.5 611.5 464.5 619.5 467C627.5 469.5 618 508.5 628 506.5C638 504.5 631 486 633.5 483C636 480 637.5 496 643 490.5C647.4 486.1 647.5 475.667 647 471C654.2 469.8 653.667 480.5 652.5 486C647.5 498.167 641.5 521.7 657.5 518.5C677.5 514.5 669.5 494 669 490.5C668.5 487 669.5 483 670.5 483C671.5 483 674 482.5 673 486C672 489.5 678 505.5 685 499.5C692 493.5 685.5 480.5 685 474C684.5 467.5 690.5 461.5 691 451.5C691.4 443.5 699.667 414 703.5 401L647 397Z" fill="black" stroke="black"/>
<path d="M298.5 397.5L352.5 401C349.333 415.333 342.1 448 340.5 454C338.5 461.5 348 490 340.5 488.5C333 487 333.5 476.5 333 475C332.5 473.5 334 465.5 326 468C318 470.5 327.5 509.5 317.5 507.5C307.5 505.5 314.5 487 312 484C309.5 481 308 497 302.5 491.5C298.1 487.1 298 476.667 298.5 472C291.3 470.8 291.833 481.5 293 487C298 499.167 304 522.7 288 519.5C268 515.5 276 495 276.5 491.5C277 488 276 484 275 484C274 484 271.5 483.5 272.5 487C273.5 490.5 267.5 506.5 260.5 500.5C253.5 494.5 260 481.5 260.5 475C261 468.5 255 462.5 254.5 452.5C254.1 444.5 247.833 413 244 400L298.5 397.5Z" fill="black" stroke="black"/>
<path d="M623.37 428.961L628 405H603.821L608.451 428.961H623.37Z" fill="white"/>
<path d="M258.63 431L254 406.529H278.179L272.52 431H258.63Z" fill="white"/>
<path d="M623.37 428.961L628 405H603.821L608.451 428.961H623.37Z" stroke="black"/>
<path d="M258.63 431L254 406.529H278.179L272.52 431H258.63Z" stroke="black"/>
</svg>
