<svg width="954" height="840" viewBox="0 0 954 840" fill="none" xmlns="http://www.w3.org/2000/svg">
<path d="M218 360.785L305.5 344.539L387.5 370.431M387.5 370.431L408 385.661M387.5 370.431L305.5 364.846L247.5 367.892L208 379.569" stroke="black"/>
<path d="M740.5 360.784L654.5 342L572.5 368.399M572.5 368.399L550.5 385.153M572.5 368.399L654.5 364.338L713 368.399L750 380.584" stroke="black"/>
<path d="M610.5 439.474L594 367.892L654.5 364.338L706.5 367.892L687 439.474H610.5Z" fill="black"/>
<path d="M270 439.474L252 367.892L305.5 364.846L364.5 368.907L348.5 439.474H270Z" fill="black"/>
<path d="M610.5 439.474L594 367.892L654.5 364.338L706.5 367.892L687 439.474H610.5Z" stroke="black"/>
<path d="M270 439.474L252 367.892L305.5 364.846L364.5 368.907L348.5 439.474H270Z" stroke="black"/>
<path d="M621 396.322L625.5 372.461H602L606.5 396.322H621Z" fill="white"/>
<path d="M266.5 398.353L262 373.984H285.5L280 398.353H266.5Z" fill="white"/>
<path d="M621 396.322L625.5 372.461H602L606.5 396.322H621Z" stroke="black"/>
<path d="M266.5 398.353L262 373.984H285.5L280 398.353H266.5Z" stroke="black"/>
</svg>
