<svg width="954" height="840" viewBox="0 0 954 840" fill="none" xmlns="http://www.w3.org/2000/svg">
<g clip-path="url(#clip0_131_34)">
<path d="M764 383.5L676 369.5L596.5 391.5M596.5 391.5L572 407M596.5 391.5L676 387L735.5 391.5L772 402" stroke="black"/>
<path d="M242 383.5L329 369L409 392M409 392L432.5 408M409 392L329 386.5L272.5 392L232 401.5" stroke="black"/>
<path d="M303.5 460L286 391.5L332.5 388L380.5 391.5L360.5 460H303.5Z" fill="black"/>
<path d="M678 388L626 391.5L644.5 460H701.5L718 391.5L678 388Z" fill="black"/>
<path d="M303.5 460L286 391.5L332.5 388L380.5 391.5L360.5 460H303.5Z" stroke="black"/>
<path d="M678 388L626 391.5L644.5 460H701.5L718 391.5L678 388Z" stroke="black"/>
<path d="M324 391H301L305 415H319.5L324 391Z" fill="white"/>
<path d="M663 391H642L645.5 415H658.5L663 391Z" fill="white"/>
<path d="M324 391H301L305 415H319.5L324 391Z" stroke="black"/>
<path d="M663 391H642L645.5 415H658.5L663 391Z" stroke="black"/>
</g>
<defs>
<clipPath id="clip0_131_34">
<rect width="953.5" height="839.5" fill="white"/>
</clipPath>
</defs>
</svg>
