<svg width="954" height="840" viewBox="0 0 954 840" fill="none" xmlns="http://www.w3.org/2000/svg">
<path d="M0 664.5L92 839.5H867.5L953.5 664.5L935 244L748 0H255L70.5 244L0 664.5Z" fill="#230A0A"/>
<path d="M175 283L646.5 79L797.5 283L854 541.5L671 761.5H309L133 541.5L175 283Z" fill="#FFC3A0"/>
<path d="M584.5 348L549 400.5L584.5 329.5L701.5 322L782 360.5L701.5 335L584.5 348Z" fill="black"/>
<path d="M448 441L419 565L455.5 606H549L590 565L549 400.5M549 400.5L584.5 348L701.5 335L782 360.5L701.5 322L584.5 329.5L549 400.5Z" stroke="black"/>
<path d="M402 349V330L287 322L206 361L287 335L402 349Z" fill="black" stroke="black"/>
<path d="M203 408L223.5 393H395L417 408" stroke="black"/>
<path d="M569 409L589.5 394H761L783 409" stroke="black"/>
<path d="M288.5 445L277.5 394H347.5L333 445H288.5Z" fill="black" stroke="black"/>
<path d="M654.5 446L643.5 395H713.5L699 446H654.5Z" fill="black" stroke="black"/>
<path d="M289.5 411L287 396H302L299 411H289.5Z" fill="white" stroke="black"/>
<path d="M655.5 412L653 397H668L665 412H655.5Z" fill="white" stroke="black"/>
<path d="M483 647L408 663L510.5 682.5L611.5 663L537 647L510.5 653.5L483 647Z" fill="#EAB9CE" stroke="black"/>
<path d="M408 663H611.5" stroke="black"/>
</svg>
